<?xml version="1.0" encoding="UTF-8"?>
<svg version="1.1" xmlns="http://www.w3.org/2000/svg" width="32" height="32">
<path d="M0 0 C10.56 0 21.12 0 32 0 C32 10.56 32 21.12 32 32 C21.44 32 10.88 32 0 32 C0 21.44 0 10.88 0 0 Z " fill="#A59F8D" transform="translate(0,0)"/>
<path d="M0 0 C0.33 0.66 0.66 1.32 1 2 C-0.216875 2.0825 -1.43375 2.165 -2.6875 2.25 C-6.81606031 2.79265269 -9.23569209 3.71738436 -12 7 C-12.57875519 10.97894194 -12.36109148 13.24499054 -10.625 16.875 C-9.17239958 19.09664825 -9.17239958 19.09664825 -7 20 C-2.95728552 20.39322052 -2.95728552 20.39322052 1 20 C4.14395232 17.10425444 5.62474285 14.0111667 7 10 C7.6875 11.6875 7.6875 11.6875 8 14 C6.6875 16.5625 6.6875 16.5625 5 19 C4.34 19.99 3.68 20.98 3 22 C0.3984375 22.51171875 0.3984375 22.51171875 -2.625 22.6875 C-4.12933594 22.78611328 -4.12933594 22.78611328 -5.6640625 22.88671875 C-6.82035156 22.94279297 -6.82035156 22.94279297 -8 23 C-8.33 23.99 -8.66 24.98 -9 26 C-12.3 26 -15.6 26 -19 26 C-19.13481759 23.06097651 -19.23399416 20.12810441 -19.3125 17.1875 C-19.35439453 16.35412109 -19.39628906 15.52074219 -19.43945312 14.66210938 C-19.4859827 12.34493641 -19.46868009 10.27080835 -19 8 C-16.7265625 6.09375 -16.7265625 6.09375 -14 5 C-13.33097656 4.54238281 -12.66195313 4.08476562 -11.97265625 3.61328125 C-7.84863948 0.80490173 -5.16911325 -0.64613916 0 0 Z " fill="#C6C3B4" transform="translate(19,6)"/>
<path d="M0 0 C-0.06510417 1.98567708 -0.13020833 3.97135417 -0.1953125 5.95703125 C-0.13254462 8.31359719 -0.13254462 8.31359719 2 11 C1.75 13.125 1.75 13.125 1 15 C-2.46238087 16.73119043 -6.21417655 16.47070629 -10 16 C-12.5625 14.4375 -12.5625 14.4375 -14 12 C-14.625 8.5625 -14.625 8.5625 -14 5 C-9.61311241 -0.15459292 -6.59394479 -0.56844352 0 0 Z " fill="#989578" transform="translate(20,8)"/>
<path d="M0 0 C0.33 0.66 0.66 1.32 1 2 C2.32 1.67 3.64 1.34 5 1 C4.690625 1.9075 4.38125 2.815 4.0625 3.75 C3.2727737 6.16563338 2.57050703 8.52780285 2 11 C4.99332739 10.0022242 5.94766315 9.2477975 8 7 C8.99 7.33 9.98 7.66 11 8 C10.625 9.9375 10.625 9.9375 10 12 C7.63386544 13.18306728 6.13219264 13.13354608 3.5 13.125 C2.7059375 13.12757812 1.911875 13.13015625 1.09375 13.1328125 C-1 13 -1 13 -3 12 C-3.08131463 10.56344146 -3.13933559 9.1255517 -3.1875 7.6875 C-3.22230469 6.88699219 -3.25710937 6.08648437 -3.29296875 5.26171875 C-2.93801608 2.52148416 -2.10633718 1.70828921 0 0 Z " fill="#322717" transform="translate(11,11)"/>
<path d="M0 0 C0.33 0.66 0.66 1.32 1 2 C-0.216875 2.0825 -1.43375 2.165 -2.6875 2.25 C-6.81603577 2.78436722 -9.15809119 3.81361739 -12 7 C-12.88593998 10.13863704 -12.88593998 10.13863704 -13 13 C-13.99 13 -14.98 13 -16 13 C-16.99 13.66 -17.98 14.32 -19 15 C-19.3125 11.6875 -19.3125 11.6875 -19 8 C-17 6.375 -17 6.375 -14 5 C-12.68323847 4.11044242 -11.37101473 3.21414451 -10.0625 2.3125 C-6.58693021 0.10976696 -4.18006852 -0.52250857 0 0 Z " fill="#B5AF9B" transform="translate(19,6)"/>
<path d="M0 0 C3.31163065 2.48372299 3.95627414 3.69877743 4.5625 7.875 C4.38498023 10.93292112 3.75840057 12.98459309 2 15.5 C-1.51102204 18.4258517 -1.51102204 18.4258517 -5.0625 18.625 C-9.25577069 17.95940148 -10.5024835 17.330022 -13 14 C-11.87851563 14.01740234 -11.87851563 14.01740234 -10.734375 14.03515625 C-9.74953125 14.04417969 -8.7646875 14.05320312 -7.75 14.0625 C-6.77546875 14.07410156 -5.8009375 14.08570313 -4.796875 14.09765625 C-2.34241322 14.01195577 -0.33831086 13.70706066 2 13 C2.16682272 8.07872966 2.24828052 4.49656104 0 0 Z " fill="#856D49" transform="translate(21,9)"/>
<path d="M0 0 C0.66 0.33 1.32 0.66 2 1 C2.625 4.0625 2.625 4.0625 3 7 C2.34 7 1.68 7 1 7 C-0.63676257 8.9600281 -0.63676257 8.9600281 -2 11 C-2.99 10.67 -3.98 10.34 -5 10 C-4.37240135 7.07120629 -3.41377341 4.63904371 -2 2 C-1.34 2 -0.68 2 0 2 C0 1.34 0 0.68 0 0 Z " fill="#6C664A" transform="translate(17,12)"/>
<path d="M0 0 C3.875 1.75 3.875 1.75 5 4 C5.1875 7 5.1875 7 5 10 C4.34 10.66 3.68 11.32 3 12 C0.50494038 9.50494038 0.64051624 8.32671112 0.375 4.875 C0.30023437 3.96492187 0.22546875 3.05484375 0.1484375 2.1171875 C0.09945313 1.41851562 0.05046875 0.71984375 0 0 Z " fill="#A3AF99" transform="translate(19,10)"/>
<path d="M0 0 C0.33 0.66 0.66 1.32 1 2 C2.32 1.67 3.64 1.34 5 1 C4.39816251 3.02045442 3.72693904 5.02111039 3 7 C2.01 7.495 2.01 7.495 1 8 C0.34 7.67 -0.32 7.34 -1 7 C-1.33 7.66 -1.66 8.32 -2 9 C-2.125 5.625 -2.125 5.625 -2 2 C-1.34 1.34 -0.68 0.68 0 0 Z " fill="#20281A" transform="translate(11,11)"/>
<path d="M0 0 C1.43739513 -0.02712066 2.87493863 -0.04645067 4.3125 -0.0625 C5.51326172 -0.07990234 5.51326172 -0.07990234 6.73828125 -0.09765625 C9 0 9 0 12 1 C12 1.66 12 2.32 12 3 C10.56260487 3.02712066 9.12506137 3.04645067 7.6875 3.0625 C6.48673828 3.07990234 6.48673828 3.07990234 5.26171875 3.09765625 C3 3 3 3 0 2 C0 1.34 0 0.68 0 0 Z " fill="#7E7765" transform="translate(11,28)"/>
<path d="M0 0 C0 0.66 0 1.32 0 2 C0.66 2.33 1.32 2.66 2 3 C1.38125 2.79375 0.7625 2.5875 0.125 2.375 C-0.57625 2.25125 -1.2775 2.1275 -2 2 C-4.29575603 4.29575603 -4.32339599 5.00842525 -4.625 8.125 C-4.74875 9.40375 -4.8725 10.6825 -5 12 C-7 10 -7 10 -7.375 6.5625 C-7 3 -7 3 -5.1875 1.0625 C-3 0 -3 0 0 0 Z " fill="#867655" transform="translate(13,10)"/>
<path d="M0 0 C2.31 0.33 4.62 0.66 7 1 C7 1.66 7 2.32 7 3 C4.69 3 2.38 3 0 3 C0 2.01 0 1.02 0 0 Z " fill="#B8B4A5" transform="translate(25,29)"/>
<path d="M0 0 C2.0625 0.4375 2.0625 0.4375 4 1 C3.6875 2.9375 3.6875 2.9375 3 5 C2.01 5.33 1.02 5.66 0 6 C-0.38218767 4.34385343 -0.71395102 2.67542976 -1 1 C-0.67 0.67 -0.34 0.34 0 0 Z " fill="#3F4B34" transform="translate(18,18)"/>
<path d="M0 0 C0.66 0 1.32 0 2 0 C2.125 2.875 2.125 2.875 2 6 C1.34 6.66 0.68 7.32 0 8 C-0.66 6.68 -1.32 5.36 -2 4 C-1.34 4 -0.68 4 0 4 C0 2.68 0 1.36 0 0 Z " fill="#8C9272" transform="translate(22,14)"/>
</svg>
